<?xml version="1.0" encoding="iso-8859-1"?>
<!-- Generator: Adobe Illustrator 19.0.0, SVG Export Plug-In . SVG Version: 6.00 Build 0)  -->
<svg version="1.1" id="Capa_1" xmlns="http://www.w3.org/2000/svg" xmlns:xlink="http://www.w3.org/1999/xlink" x="0px" y="0px"
	 viewBox="0 0 479.774 479.774" style="enable-background:new 0 0 479.774 479.774;" xml:space="preserve">
<g>
	<g>
		<g>
			<path d="M455.887,319.774h-24v-264c-0.003-1.58-0.47-3.124-1.344-4.44l-32-48c-2.75-3.676-7.959-4.427-11.635-1.677
				c-0.636,0.476-1.201,1.041-1.677,1.677l-32,48c-0.874,1.316-1.341,2.86-1.344,4.44v264h-24c-4.418,0-8,3.582-8,8s3.582,8,8,8h40
				v136c0,4.418,3.582,8,8,8h32c4.418,0,8-3.582,8-8v-136h40c4.418,0,8-3.582,8-8S460.305,319.774,455.887,319.774z
				 M399.887,463.774h-16v-128h16V463.774z M415.887,319.774h-48v-261.6l24-36l24,36V319.774z"/>
			<path d="M297.719,63.982l-136-32c-1.205-0.28-2.459-0.28-3.664,0l-136,32c-3.616,0.851-6.17,4.078-6.168,7.792v230.792
				c0.108,48.162,25.587,92.702,67.048,117.208l72.896,42.888c2.503,1.473,5.608,1.473,8.112,0l72.896-42.888
				c41.461-24.506,66.94-69.046,67.048-117.208V71.774C303.889,68.06,301.335,64.832,297.719,63.982z M287.887,302.566
				c-0.091,42.5-22.573,81.807-59.16,103.432l-68.84,40.496l-68.8-40.496c-36.602-21.615-59.101-60.924-59.2-103.432V78.11
				l128-30.12l128,30.12V302.566z"/>
			<path d="M158.055,64.862l-104,24.464c-3.616,0.851-6.17,4.078-6.168,7.792v205.448c0.081,36.832,19.565,70.896,51.272,89.64
				l56.672,33.336c2.503,1.473,5.608,1.473,8.112,0l56.672-33.336c31.707-18.744,51.19-52.808,51.272-89.64V97.118
				c0.002-3.714-2.552-6.941-6.168-7.792l-104-24.464C160.514,64.582,159.26,64.582,158.055,64.862z M255.887,103.454v199.112
				c-0.072,31.163-16.554,59.983-43.376,75.848l-52.624,30.96l-52.616-30.96c-26.826-15.862-43.312-44.683-43.384-75.848V103.454
				l96-22.584L255.887,103.454z"/>
		</g>
	</g>
</g>
<g>
</g>
<g>
</g>
<g>
</g>
<g>
</g>
<g>
</g>
<g>
</g>
<g>
</g>
<g>
</g>
<g>
</g>
<g>
</g>
<g>
</g>
<g>
</g>
<g>
</g>
<g>
</g>
<g>
</g>
</svg>
