<svg height="512" viewBox="0 0 60 60" width="512" xmlns="http://www.w3.org/2000/svg"><g id="Page-1" fill="none" fill-rule="evenodd"><g id="029---Sword-and-Shield" fill-rule="nonzero"><g id="Color" transform="translate(1)"><path id="Shape" d="m15.89 10.9-4.89 29.1h-6l-4.89-29.1c-.07171945-.5550749.07928916-1.11596402.42-1.56l5.91-7.57c.37089743-.48693751.94789458-.77275718 1.56-.77275718s1.18910257.28581967 1.56.77275718l5.91 7.57c.3407108.44403598.4917194 1.0049251.42 1.56z" fill="#00bcd4"/><path id="Shape" d="m15.47 9.34-5.91-7.57c-.36151859-.47381227-.91942088-.75684247-1.51528383-.76872079-.59586296-.01187831-1.16460175.2486927-1.54471617.70772079.019.022.042.038.06.061l5.91 7.57c.3407108.44403598.4917194 1.0049251.42 1.56l-4.89 29.1h3l4.89-29.1c.0717194-.5550749-.0792892-1.11596402-.42-1.56z" fill="#00838f"/><path id="Shape" d="m16 42c-.0081672 1.1011688-.8988312 1.9918328-2 2h-12c-1.10320187-.0032948-1.9967052-.8967981-2-2-.00282307-.5305905.2101411-1.0395388.59-1.41.3704612-.3798589.87940947-.5928231 1.41-.59h12c1.1032019.0032948 1.9967052.8967981 2 2z" fill="#7f8e94"/><path id="Shape" d="m14 40h-3c1.1032019.0032948 1.9967052.8967981 2 2-.0081672 1.1011688-.8988312 1.9918328-2 2h3c1.1011688-.0081672 1.9918328-.8988312 2-2-.0032948-1.1032019-.8967981-1.9967052-2-2z" fill="#545c60"/><path id="Rectangle-path" d="m5 44h6v4h-6z" fill="#91562d"/><path id="Rectangle-path" d="m5 48h6v5h-6z" fill="#91562d"/><path id="Shape" d="m11 53v3c0 1.6568542-1.34314575 3-3 3s-3-1.3431458-3-3v-3z" fill="#91562d"/><path id="Shape" d="m56.91 13.61c-.0893984-.4829961-.5191163-.8276213-1.01-.81-2.59.11-10.65-.03-16.2-5.12-.3933997-.36981757-1.0066003-.36981757-1.4 0-5.55 5.09-13.61 5.23-16.2 5.12-.4908837-.0176213-.9206016.3270039-1.01.81-1.07 5.46-5.76 35.21 17.91 39.39 23.67-4.18 18.98-33.93 17.91-39.39zm-2.99 14.39c-.0784918 1.339953-.2253497 2.6750244-.44 4-.4718312 3.5940489-1.7392612 7.0376324-3.71 10.08-2.0867414 3.076879-5.1924842 5.3185383-8.77 6.33-.6559917.2120636-1.3237919.3856917-2 .52-.6762081-.1343083-1.3440083-.3079364-2-.52-3.5775158-1.0114617-6.6832586-3.253121-8.77-6.33-1.9707388-3.0423676-3.2381688-6.4859511-3.71-10.08-.2146503-1.3249756-.3615082-2.660047-.44-4-.1912097-3.745006-.0136889-7.4997394.53-11.21 4.3246453-.1440366 8.5605469-1.2654053 12.39-3.28.6884995-.3843027 1.3561061-.8048948 2-1.26.6438939.4551052 1.3115005.8756973 2 1.26 3.8294531 2.0145947 8.0653547 3.1359634 12.39 3.28.5436889 3.7102606.7212097 7.464994.53 11.21z" fill="#7f8e94"/><g fill="#9d27b0"><path id="Shape" d="m32.29 28h-8.21c-.1912097-3.745006-.0136889-7.4997394.53-11.21 4.3246453-.1440366 8.5605469-1.2654053 12.39-3.28v9.78c-2.2642407.6745577-4.0354423 2.4457593-4.71 4.71z"/><path id="Shape" d="m37 36.71v11.7c-3.5775158-1.0114617-6.6832586-3.253121-8.77-6.33-1.9707388-3.0423676-3.2381688-6.4859511-3.71-10.08h7.77c.6745577 2.2642407 2.4457593 4.0354423 4.71 4.71z"/><path id="Shape" d="m53.48 32c-.4718312 3.5940489-1.7392612 7.0376324-3.71 10.08-2.0867414 3.076879-5.1924842 5.3185383-8.77 6.33v-11.7c2.2642407-.6745577 4.0354423-2.4457593 4.71-4.71z"/><path id="Shape" d="m53.92 28h-8.21c-.6745577-2.2642407-2.4457593-4.0354423-4.71-4.71v-9.78c3.8294531 2.0145947 8.0653547 3.1359634 12.39 3.28.5436889 3.7102606.7212097 7.464994.53 11.21z"/></g><path id="Shape" d="m41 13.51v9.78c-1.3053037-.386641-2.6946963-.386641-4 0v-9.78c.6884995-.3843027 1.3561061-.8048948 2-1.26.6438939.4551052 1.3115005.8756973 2 1.26z" fill="#ffdc00"/><path id="Shape" d="m32 30c-.001899.6772782.095813 1.3511542.29 2h-7.77c-.2146503-1.3249756-.3615082-2.660047-.44-4h8.21c-.194187.6488458-.291899 1.3227218-.29 2z" fill="#ffdc00"/><path id="Shape" d="m32.29 28h-8.21c-.1912097-3.745006-.0136889-7.4997394.53-11.21 4.3246453-.1440366 8.5605469-1.2654053 12.39-3.28v9.78c-2.2642407.6745577-4.0354423 2.4457593-4.71 4.71z" fill="#9d27b0"/><path id="Shape" d="m53.92 28c-.0784918 1.339953-.2253497 2.6750244-.44 4h-7.77c.386641-1.3053037.386641-2.6946963 0-4z" fill="#ffdc00"/><path id="Shape" d="m41 36.71v11.7c-.6559917.2120636-1.3237919.3856917-2 .52-.6762081-.1343083-1.3440083-.3079364-2-.52v-11.7c1.3053037.386641 2.6946963.386641 4 0z" fill="#ffdc00"/><path id="Shape" d="m37 36.71v11.7c-3.5775158-1.0114617-6.6832586-3.253121-8.77-6.33-1.9707388-3.0423676-3.2381688-6.4859511-3.71-10.08h7.77c.6745577 2.2642407 2.4457593 4.0354423 4.71 4.71z" fill="#9d27b0"/><path id="Shape" d="m53.48 32c-.4718312 3.5940489-1.7392612 7.0376324-3.71 10.08-2.0867414 3.076879-5.1924842 5.3185383-8.77 6.33v-11.7c2.2642407-.6745577 4.0354423-2.4457593 4.71-4.71z" fill="#9d27b0"/><path id="Shape" d="m50.48 32c-.4718312 3.5940489-1.7392612 7.0376324-3.71 10.08-1.4626056 2.1623162-3.4472042 3.9205948-5.77 5.112v1.218c3.5775158-1.0114617 6.6832586-3.253121 8.77-6.33 1.9707388-3.0423676 3.2381688-6.4859511 3.71-10.08z" fill="#6a1b9a"/><path id="Shape" d="m53.92 28h-8.21c-.6745577-2.2642407-2.4457593-4.0354423-4.71-4.71v-9.78c3.8294531 2.0145947 8.0653547 3.1359634 12.39 3.28.5436889 3.7102606.7212097 7.464994.53 11.21z" fill="#9d27b0"/><path id="Shape" d="m53.39 16.79c-4.3246453-.1440366-8.5605469-1.2654053-12.39-3.28v1.384c3.0109845 1.1218717 6.1797248 1.7630439 9.39 1.9.5434267 3.7089431.7209469 7.4623239.53 11.206h3c.1912097-3.745006.0136889-7.4997394-.53-11.21z" fill="#6a1b9a"/><path id="Shape" d="m46 30c.001899.6772782-.095813 1.3511542-.29 2-.6745577 2.2642407-2.4457593 4.0354423-4.71 4.71-1.3053037.386641-2.6946963.386641-4 0-2.2642407-.6745577-4.0354423-2.4457593-4.71-4.71-.386641-1.3053037-.386641-2.6946963 0-4 .6745577-2.2642407 2.4457593-4.0354423 4.71-4.71 1.3053037-.386641 2.6946963-.386641 4 0 2.2642407.6745577 4.0354423 2.4457593 4.71 4.71.194187.6488458.291899 1.3227218.29 2z" fill="#ffdc00"/><path id="Shape" d="m45.71 28c-.6745577-2.2642407-2.4457593-4.0354423-4.71-4.71-1.1365189-.34467-2.343925-.382962-3.5-.111.167.037.338.062.5.111 2.2642407.6745577 4.0354423 2.4457593 4.71 4.71.386641 1.3053037.386641 2.6946963 0 4-.6745577 2.2642407-2.4457593 4.0354423-4.71 4.71-.162.049-.333.074-.5.111 2.4183039.5336119 4.9384757-.2516096 6.6257003-2.0643999s2.2898337-4.3827515 1.5842997-6.7566001z" fill="#fec108"/></g><g id="Outline" fill="#000"><path id="Shape" d="m15 39h-1.818l4.695-27.97c.1070522-.8190495-.1172017-1.64695302-.623-2.3l-5.9-7.573c-.5621893-.72809841-1.43011737-1.15448602-2.35-1.15448602s-1.78781075.42638761-2.35 1.15448602l-5.907 7.571c-.51181782.66425542-.7348979 1.5064818-.619 2.337l4.69 27.935h-1.818c-1.65685425 0-3 1.3431458-3 3s1.34314575 3 3 3h2v11c0 2.209139 1.790861 4 4 4s4-1.790861 4-4v-11h2c1.6568542 0 3-1.3431458 3-3s-1.3431458-3-3-3zm-12.895-28.23c-.03743653-.2889899.04132692-.5810261.219-.812l5.9-7.573c.18272775-.24224494.46856624-.38467277.772-.38467277s.58927225.14242783.772.38467277l5.9 7.573c.1718876.2200618.2514942.4983264.222.776l-4.736 28.266h-4.308zm4.895 38.23h4v3h-4zm2 9c-1.1045695 0-2-.8954305-2-2v-2h4v2c0 1.1045695-.8954305 2-2 2zm2-11h-4v-2h4zm4-4h-12c-.55228475 0-1-.4477153-1-1s.44771525-1 1-1h12c.5522847 0 1 .4477153 1 1s-.4477153 1-1 1z"/><path id="Shape" d="m9 6c-.55228475 0-1 .44771525-1 1v1c0 .55228475.44771525 1 1 1s1-.44771525 1-1v-1c0-.55228475-.44771525-1-1-1z"/><path id="Shape" d="m9 11c-.55228475 0-1 .4477153-1 1v12c0 .5522847.44771525 1 1 1s1-.4477153 1-1v-12c0-.5522847-.44771525-1-1-1z"/><path id="Shape" d="m56.855 11.8c-2.28.092-10.172.01-15.482-4.861-.7737022-.71913129-1.9712978-.71913129-2.745 0-5.31 4.87-13.2 4.951-15.482 4.861-.9853163-.0427007-1.8526942.6441332-2.037 1.613-.917 4.686-3.338 20.808 4 31.494 3.357 4.89 8.309 7.943 14.72 9.074.1151384.019994.2328616.019994.348 0 6.411-1.131 11.363-4.184 14.72-9.074 7.335-10.686 4.914-26.808 4-31.494-.1703402-.9793707-1.0498038-1.6740694-2.042-1.613zm-3.61 31.975c-3.0963287 4.4433616-7.8880098 7.4131547-13.245 8.209-5.3555017-.7936546-10.1469333-3.7600373-13.245-8.2-7.071-10.308-4.309-26.784-3.691-29.984 2.483.1 11.042 0 16.957-5.385 5.879 5.385 14.431 5.485 16.907 5.385.626 3.2 3.388 19.676-3.683 29.979z"/><path id="Shape" d="m54.434 15.789c-4.9364308-.1208156-9.7387935-1.6309119-13.856-4.357-.3462993-.2452843-.8097007-.2452843-1.156 0-4.1171595 2.7261868-8.9195513 4.2362922-13.856 4.357-.4792659.0219395-.8754153.3811597-.944.856-.912 6.324-1.634 18.11 3.782 26 2.6592869 3.8632237 6.7710562 6.4834123 11.396 7.262.1319212.0274431.2680788.0274431.4 0 4.6260752-.7770853 8.7394035-3.3966259 11.4-7.26 5.416-7.892 4.694-19.679 3.782-26-.0680012-.4770531-.4665497-.8377647-.948-.858zm-.484 11.211h-6.539c-.8166663-2.0041247-2.4068753-3.5943337-4.411-4.411v-7.469c3.3148155 1.5039941 6.87602 2.3911606 10.509 2.618.399622 3.0701155.547115 6.1678044.441 9.262zm-6.019 2h5.9c-.056.663-.133 1.331-.224 2h-5.676c.0919984-.6634928.0919984-1.3365072 0-2zm-7.931 7c-3.3137085 0-6-2.6862915-6-6s2.6862915-6 6-6 6 2.6862915 6 6c-.0033074 3.3123376-2.6876624 5.9966926-6 6zm0-22.541c.329.218.666.4 1 .6v8.01c-.6634928-.0919984-1.3365072-.0919984-2 0v-8.01c.334-.197.671-.382 1-.6zm-13.509 4.279c3.6330725-.2262402 7.1943839-1.1134334 10.509-2.618v7.469c-2.0041247.8166663-3.5943337 2.4068753-4.411 4.411h-6.539c-.106115-3.0941956.041378-6.1918845.441-9.262zm5.578 13.262h-5.676c-.091-.669-.168-1.337-.224-2h5.9c-.0919984.6634928-.0919984 1.3365072 0 2zm-2.016 10.516c-1.6760267-2.583267-2.8083722-5.4808195-3.328-8.516h5.864c.8166663 2.0041247 2.4068753 3.5943337 4.411 4.411v9.6c-2.8255537-1.0738529-5.2513726-2.9926488-6.947-5.495zm9.947 6.39c-.344-.075-.669-.169-1-.257v-9.718c.6634928.0919984 1.3365072.0919984 2 0v9.718c-.331.088-.656.182-1 .257zm9.947-6.39c-1.6960845 2.5012368-4.1218549 4.4189468-6.947 5.492v-9.6c2.0035463-.8159702 3.5936668-2.4050093 4.411-4.408h5.864c-.5196278 3.0351805-1.6519733 5.932733-3.328 8.516z"/></g></g></g></svg>